# ProBuilder 4.2.3
# https://unity3d.com/unity/features/worldbuilding/probuilder
# 12/14/2020 5:30:57 PM

mtllib ./cupstack.mtl
o cupstack

g Cylinder
v 3.384879 2.191176 5.50735
v 3.42665 1.888622 5.502717
v 3.347725 2.189889 5.597108
v 3.377069 1.886905 5.622497
v 3.257978 2.189525 5.63431
v 3.257304 1.886418 5.672142
v 3.168212 2.190296 5.597164
v 3.137512 1.887447 5.622571
v 3.131009 2.191751 5.507429
v 3.087866 1.889389 5.502821
v 3.168163 2.193038 5.417671
v 3.137447 1.891106 5.383042
v 3.257909 2.193403 5.380469
v 3.257211 1.891593 5.333397
v 3.347676 2.192631 5.417616
v 3.377003 1.890564 5.382968
v 3.257944 2.191464 5.50739
v 3.257258 1.889005 5.502769

vt 0.04795888 -0.01331667
vt 0 0.9933638
vt 0.3347246 -0.01331667
vt 0.3826834 0.9933639
vt 0.3185571 0.01780597
vt 0.2705983 1.024487
vt 0.6053228 0.01780597
vt 0.6532817 1.024486
vt 0.3185564 0.0618201
vt 0.2705975 1.068501
vt 0.6053221 0.0618201
vt 0.653281 1.068501
vt 0.04795958 0.09294297
vt 8.115655E-07 1.099624
vt 0.3347254 0.09294297
vt 0.3826843 1.099623
vt -0.3347254 0.09294271
vt -0.3826842 1.099623
vt -0.04795958 0.09294271
vt -0.6053221 0.06182026
vt -0.653281 1.068501
vt -0.3185564 0.06182026
vt -0.2705975 1.068501
vt -0.6053227 0.01780598
vt -0.6532815 1.024486
vt -0.3185571 0.01780598
vt -0.2705981 1.024486
vt -0.3347248 -0.01331669
vt -0.3826835 0.9933638
vt -0.04795885 -0.01331669
vt 0.1253223 0
vt 0.5 0
vt 0.2350631 0.2649369
vt 0 0
vt -0.5 0
vt -0.1464466 0.3535534
vt 0.5 0.3746777
vt -0.5 0.5
vt 0.7649369 0.2649369
vt -0.8535534 0.3535534
vt 0.8746777 0
vt -1 -4.371139E-08
vt 0.7649369 -0.2649369
vt -0.8535534 -0.3535534
vt 0.5 -0.3746777
vt -0.5 -0.5
vt 0.2350631 -0.2649372
vt -0.1464467 -0.3535534

vn 0.3362399 0.0368499 0.0004709858
vn 0.2378476 0.0334419 0.2381712
vn 0.000177237 0.03247582 0.3366907
vn -0.2375468 0.03451767 0.2383179
vn -0.3360693 0.03837129 0.0006781182
vn -0.237677 0.04177935 -0.2370221
vn -6.801661E-06 0.04274538 -0.3355416
vn 0.2377174 0.04070355 -0.2371688
vn 0.000685855 0.3024582 0.004620409
vn -0.000685855 -0.3024582 -0.004620409

usemtl ProBuilderDefault
f 1/31/9 17/32/9 3/33/9
f 3/33/9 17/32/9 5/37/9
f 5/37/9 17/32/9 7/39/9
f 7/39/9 17/32/9 9/41/9
f 9/41/9 17/32/9 11/43/9
f 11/43/9 17/32/9 13/45/9
f 13/45/9 17/32/9 15/47/9
f 15/47/9 17/32/9 1/31/9
f 4/36/10 18/35/10 2/34/10
f 6/38/10 18/35/10 4/36/10
f 8/40/10 18/35/10 6/38/10
f 10/42/10 18/35/10 8/40/10
f 12/44/10 18/35/10 10/42/10
f 14/46/10 18/35/10 12/44/10
f 16/48/10 18/35/10 14/46/10
f 2/34/10 18/35/10 16/48/10
f 4/4/2 2/2/1 1/1/1
f 1/1/1 3/3/2 4/4/2
f 6/8/3 4/6/2 3/5/2
f 3/5/2 5/7/3 6/8/3
f 8/12/4 6/10/3 5/9/3
f 5/9/3 7/11/4 8/12/4
f 10/16/5 8/14/4 7/13/4
f 7/13/4 9/15/5 10/16/5
f 12/14/6 10/18/5 9/17/5
f 9/17/5 11/19/6 12/14/6
f 14/23/7 12/21/6 11/20/6
f 11/20/6 13/22/7 14/23/7
f 16/27/8 14/25/7 13/24/7
f 13/24/7 15/26/8 16/27/8
f 2/2/1 16/29/8 15/28/8
f 15/28/8 1/30/1 2/2/1

g Cylinder (4)
v 3.380543 2.066375 5.496
v 3.423 1.763881 5.496
v 3.343364 2.066375 5.585757
v 3.373386 1.763881 5.615779
v 3.253608 2.066375 5.622935
v 3.253608 1.763881 5.665393
v 3.163851 2.066375 5.585757
v 3.133829 1.763881 5.615779
v 3.126673 2.066375 5.496
v 3.084215 1.763881 5.496
v 3.163851 2.066375 5.406244
v 3.133829 1.763881 5.376222
v 3.253608 2.066375 5.369065
v 3.253608 1.763881 5.326608
v 3.343364 2.066375 5.406244
v 3.373386 1.763881 5.376222
v 3.253608 2.066375 5.496
v 3.253608 1.763881 5.496

vt 0.04795888 -0.01331667
vt 0 0.9933638
vt 0.3347246 -0.01331667
vt 0.3826834 0.9933639
vt 0.3185571 0.01780597
vt 0.2705983 1.024487
vt 0.6053228 0.01780597
vt 0.6532817 1.024486
vt 0.3185564 0.0618201
vt 0.2705975 1.068501
vt 0.6053221 0.0618201
vt 0.653281 1.068501
vt 0.04795958 0.09294297
vt 8.115655E-07 1.099624
vt 0.3347254 0.09294297
vt 0.3826843 1.099623
vt -0.3347254 0.09294271
vt -0.3826842 1.099623
vt -0.04795958 0.09294271
vt -0.6053221 0.06182026
vt -0.653281 1.068501
vt -0.3185564 0.06182026
vt -0.2705975 1.068501
vt -0.6053227 0.01780598
vt -0.6532815 1.024486
vt -0.3185571 0.01780598
vt -0.2705981 1.024486
vt -0.3347248 -0.01331669
vt -0.3826835 0.9933638
vt -0.04795885 -0.01331669
vt 0.1253223 0
vt 0.5 0
vt 0.2350631 0.2649369
vt 0 0
vt -0.5 0
vt -0.1464466 0.3535534
vt 0.5 0.3746777
vt -0.5 0.5
vt 0.7649369 0.2649369
vt -0.8535534 0.3535534
vt 0.8746777 0
vt -1 -4.371139E-08
vt 0.7649369 -0.2649369
vt -0.8535534 -0.3535534
vt 0.5 -0.3746777
vt -0.5 -0.5
vt 0.2350631 -0.2649372
vt -0.1464467 -0.3535534

vn 0.3361554 0.03761507 9.278667E-08
vn 0.2376978 0.03761511 0.2376977
vn -7.095451E-08 0.03761508 0.3361554
vn -0.2376977 0.03761511 0.2376978
vn -0.3361554 0.03761509 -8.18706E-08
vn -0.2376978 0.03761511 -0.2376977
vn -6.549647E-08 0.03761508 -0.3361554
vn 0.2376977 0.03761508 -0.2376978
vn 0 0.3024943 0
vn 0 -0.3024943 0

usemtl ProBuilderDefault
f 19/79/19 35/80/19 21/81/19
f 21/81/19 35/80/19 23/85/19
f 23/85/19 35/80/19 25/87/19
f 25/87/19 35/80/19 27/89/19
f 27/89/19 35/80/19 29/91/19
f 29/91/19 35/80/19 31/93/19
f 31/93/19 35/80/19 33/95/19
f 33/95/19 35/80/19 19/79/19
f 22/84/20 36/83/20 20/82/20
f 24/86/20 36/83/20 22/84/20
f 26/88/20 36/83/20 24/86/20
f 28/90/20 36/83/20 26/88/20
f 30/92/20 36/83/20 28/90/20
f 32/94/20 36/83/20 30/92/20
f 34/96/20 36/83/20 32/94/20
f 20/82/20 36/83/20 34/96/20
f 22/52/12 20/50/11 19/49/11
f 19/49/11 21/51/12 22/52/12
f 24/56/13 22/54/12 21/53/12
f 21/53/12 23/55/13 24/56/13
f 26/60/14 24/58/13 23/57/13
f 23/57/13 25/59/14 26/60/14
f 28/64/15 26/62/14 25/61/14
f 25/61/14 27/63/15 28/64/15
f 30/62/16 28/66/15 27/65/15
f 27/65/15 29/67/16 30/62/16
f 32/71/17 30/69/16 29/68/16
f 29/68/16 31/70/17 32/71/17
f 34/75/18 32/73/17 31/72/17
f 31/72/17 33/74/18 34/75/18
f 20/50/11 34/77/18 33/76/18
f 33/76/18 19/78/11 20/50/11

g Cylinder (5)
v 3.376586 1.942462 5.486204
v 3.419043 1.639972 5.487822
v 3.339407 1.942942 5.57596
v 3.369429 1.640613 5.607599
v 3.24965 1.943141 5.613137
v 3.24965 1.640878 5.657212
v 3.159894 1.942942 5.57596
v 3.129872 1.640613 5.607599
v 3.122715 1.942462 5.486204
v 3.080258 1.639972 5.487822
v 3.159894 1.941982 5.396449
v 3.129872 1.639332 5.368045
v 3.24965 1.941783 5.359271
v 3.24965 1.639066 5.318432
v 3.339407 1.941982 5.396449
v 3.369429 1.639332 5.368045
v 3.24965 1.942462 5.486204
v 3.24965 1.639972 5.487822

vt 0.04795888 -0.01331667
vt 0 0.9933638
vt 0.3347246 -0.01331667
vt 0.3826834 0.9933639
vt 0.3185571 0.01780597
vt 0.2705983 1.024487
vt 0.6053228 0.01780597
vt 0.6532817 1.024486
vt 0.3185564 0.0618201
vt 0.2705975 1.068501
vt 0.6053221 0.0618201
vt 0.653281 1.068501
vt 0.04795958 0.09294297
vt 8.115655E-07 1.099624
vt 0.3347254 0.09294297
vt 0.3826843 1.099623
vt -0.3347254 0.09294271
vt -0.3826842 1.099623
vt -0.04795958 0.09294271
vt -0.6053221 0.06182026
vt -0.653281 1.068501
vt -0.3185564 0.06182026
vt -0.2705975 1.068501
vt -0.6053227 0.01780598
vt -0.6532815 1.024486
vt -0.3185571 0.01780598
vt -0.2705981 1.024486
vt -0.3347248 -0.01331669
vt -0.3826835 0.9933638
vt -0.04795885 -0.01331669
vt 0.1253223 0
vt 0.5 0
vt 0.2350631 0.2649369
vt 0 0
vt -0.5 0
vt -0.1464466 0.3535534
vt 0.5 0.3746777
vt -0.5 0.5
vt 0.7649369 0.2649369
vt -0.8535534 0.3535534
vt 0.8746777 0
vt -1 -4.371139E-08
vt 0.7649369 -0.2649369
vt -0.8535534 -0.3535534
vt 0.5 -0.3746777
vt -0.5 -0.5
vt 0.2350631 -0.2649372
vt -0.1464467 -0.3535534

vn 0.3361554 0.03761453 -0.0002011054
vn 0.2376978 0.03888599 0.2374931
vn -7.095451E-08 0.0394126 0.3359494
vn -0.2376977 0.03888599 0.2374932
vn -0.3361554 0.03761455 -0.0002012801
vn -0.2376978 0.03634316 -0.2378955
vn -6.549647E-08 0.03581649 -0.3363518
vn 0.2376977 0.03634313 -0.2378956
vn 0 0.30249 -0.001618003
vn 0 -0.30249 0.001618003

usemtl ProBuilderDefault
f 37/127/29 53/128/29 39/129/29
f 39/129/29 53/128/29 41/133/29
f 41/133/29 53/128/29 43/135/29
f 43/135/29 53/128/29 45/137/29
f 45/137/29 53/128/29 47/139/29
f 47/139/29 53/128/29 49/141/29
f 49/141/29 53/128/29 51/143/29
f 51/143/29 53/128/29 37/127/29
f 40/132/30 54/131/30 38/130/30
f 42/134/30 54/131/30 40/132/30
f 44/136/30 54/131/30 42/134/30
f 46/138/30 54/131/30 44/136/30
f 48/140/30 54/131/30 46/138/30
f 50/142/30 54/131/30 48/140/30
f 52/144/30 54/131/30 50/142/30
f 38/130/30 54/131/30 52/144/30
f 40/100/22 38/98/21 37/97/21
f 37/97/21 39/99/22 40/100/22
f 42/104/23 40/102/22 39/101/22
f 39/101/22 41/103/23 42/104/23
f 44/108/24 42/106/23 41/105/23
f 41/105/23 43/107/24 44/108/24
f 46/112/25 44/110/24 43/109/24
f 43/109/24 45/111/25 46/112/25
f 48/110/26 46/114/25 45/113/25
f 45/113/25 47/115/26 48/110/26
f 50/119/27 48/117/26 47/116/26
f 47/116/26 49/118/27 50/119/27
f 52/123/28 50/121/27 49/120/27
f 49/120/27 51/122/28 52/123/28
f 38/98/21 52/125/28 51/124/28
f 51/124/28 37/126/21 38/98/21

g Cylinder (1)
v 3.384879 2.278096 5.50735
v 3.42665 1.975542 5.502717
v 3.347725 2.276809 5.597108
v 3.377069 1.973825 5.622497
v 3.257978 2.276444 5.63431
v 3.257304 1.973338 5.672142
v 3.168212 2.277215 5.597164
v 3.137512 1.974367 5.622571
v 3.131009 2.278671 5.507429
v 3.087866 1.976308 5.502821
v 3.168163 2.279958 5.417671
v 3.137447 1.978026 5.383042
v 3.257909 2.280322 5.380469
v 3.257211 1.978513 5.333397
v 3.347676 2.279551 5.417616
v 3.377003 1.977484 5.382968
v 3.257944 2.278383 5.50739
v 3.257258 1.975925 5.502769

vt 0.04795888 -0.01331667
vt 0 0.9933638
vt 0.3347246 -0.01331667
vt 0.3826834 0.9933639
vt 0.3185571 0.01780597
vt 0.2705983 1.024487
vt 0.6053228 0.01780597
vt 0.6532817 1.024486
vt 0.3185564 0.0618201
vt 0.2705975 1.068501
vt 0.6053221 0.0618201
vt 0.653281 1.068501
vt 0.04795958 0.09294297
vt 8.115655E-07 1.099624
vt 0.3347254 0.09294297
vt 0.3826843 1.099623
vt -0.3347254 0.09294271
vt -0.3826842 1.099623
vt -0.04795958 0.09294271
vt -0.6053221 0.06182026
vt -0.653281 1.068501
vt -0.3185564 0.06182026
vt -0.2705975 1.068501
vt -0.6053227 0.01780598
vt -0.6532815 1.024486
vt -0.3185571 0.01780598
vt -0.2705981 1.024486
vt -0.3347248 -0.01331669
vt -0.3826835 0.9933638
vt -0.04795885 -0.01331669
vt 0.1253223 0
vt 0.5 0
vt 0.2350631 0.2649369
vt 0 0
vt -0.5 0
vt -0.1464466 0.3535534
vt 0.5 0.3746777
vt -0.5 0.5
vt 0.7649369 0.2649369
vt -0.8535534 0.3535534
vt 0.8746777 0
vt -1 -4.371139E-08
vt 0.7649369 -0.2649369
vt -0.8535534 -0.3535534
vt 0.5 -0.3746777
vt -0.5 -0.5
vt 0.2350631 -0.2649372
vt -0.1464467 -0.3535534

vn 0.3362399 0.0368499 0.0004709858
vn 0.2378476 0.0334419 0.2381712
vn 0.000177237 0.03247582 0.3366907
vn -0.2375468 0.03451767 0.2383179
vn -0.3360693 0.03837129 0.0006781182
vn -0.237677 0.04177935 -0.2370221
vn -6.801661E-06 0.04274538 -0.3355416
vn 0.2377174 0.04070355 -0.2371688
vn 0.000685855 0.3024582 0.004620409
vn -0.000685855 -0.3024582 -0.004620409

usemtl ProBuilderDefault
f 55/175/39 71/176/39 57/177/39
f 57/177/39 71/176/39 59/181/39
f 59/181/39 71/176/39 61/183/39
f 61/183/39 71/176/39 63/185/39
f 63/185/39 71/176/39 65/187/39
f 65/187/39 71/176/39 67/189/39
f 67/189/39 71/176/39 69/191/39
f 69/191/39 71/176/39 55/175/39
f 58/180/40 72/179/40 56/178/40
f 60/182/40 72/179/40 58/180/40
f 62/184/40 72/179/40 60/182/40
f 64/186/40 72/179/40 62/184/40
f 66/188/40 72/179/40 64/186/40
f 68/190/40 72/179/40 66/188/40
f 70/192/40 72/179/40 68/190/40
f 56/178/40 72/179/40 70/192/40
f 58/148/32 56/146/31 55/145/31
f 55/145/31 57/147/32 58/148/32
f 60/152/33 58/150/32 57/149/32
f 57/149/32 59/151/33 60/152/33
f 62/156/34 60/154/33 59/153/33
f 59/153/33 61/155/34 62/156/34
f 64/160/35 62/158/34 61/157/34
f 61/157/34 63/159/35 64/160/35
f 66/158/36 64/162/35 63/161/35
f 63/161/35 65/163/36 66/158/36
f 68/167/37 66/165/36 65/164/36
f 65/164/36 67/166/37 68/167/37
f 70/171/38 68/169/37 67/168/37
f 67/168/37 69/170/38 70/171/38
f 56/146/31 70/173/38 69/172/38
f 69/172/38 55/174/31 56/146/31

